# xmcd CD database file
#
# Track frame offsets:
#	150
#	27670
#	43932
#	62195
#	80192
#	85162
#	109687
#	126515
#	133452
#	157815
#	178130
#	196177
#	202715
#	222990
#	268727
#	283691
#
# Disc length: 3988 seconds
#
# Revision: 1
# Processed by: cddbd v1.5.1PL0 Copyright (c) Steve Scherf et al.
# Submitted via: CDex 1.51
#
DISCID=f90f9210
DTITLE=BLINDSPOTT - BLINDSPOTT
DYEAR=2004
DGENRE=Rock
TTITLE0=Mind Dependency
TTITLE1=Nil by Mouth
TTITLE2=Suffocate
TTITLE3=Fall Down
TTITLE4=Interlude
TTITLE5=Blank
TTITLE6=S.U.I.T (so us is this)
TTITLE7=Jaded
TTITLE8=Plastic Shadow
TTITLE9=Lit Up
TTITLE10=Room to Breathe
TTITLE11=PMF
TTITLE12=Phlex
TTITLE13=Ilah (Silent War)
TTITLE14=Phlex (dubious bros mix)
TTITLE15=Phlex (rock live studio version pre-album)
EXTD=YEAR: 2004
EXTT0=
EXTT1=
EXTT2=
EXTT3=
EXTT4=
EXTT5=
EXTT6=
EXTT7=
EXTT8=
EXTT9=
EXTT10=
EXTT11=
EXTT12=
EXTT13=
EXTT14=
EXTT15=
PLAYORDER=
